<svg width="24" height="23" viewBox="0 0 24 23" fill="none" xmlns="http://www.w3.org/2000/svg">
<path d="M23.0529 16.3056H7.12161L7.92152 14.5692L21.2124 14.5436C21.6618 14.5436 22.047 14.2014 22.1273 13.7282L23.9679 2.74848C24.0161 2.46052 23.9438 2.164 23.7673 1.93876C23.68 1.82791 23.5711 1.73862 23.4483 1.67708C23.3254 1.61554 23.1914 1.58322 23.0556 1.58237L6.14781 1.5225L6.00334 0.798314C5.91238 0.336432 5.52179 0 5.07769 0H0.944376C0.693912 0 0.453706 0.106036 0.276601 0.294781C0.0994965 0.483526 0 0.73952 0 1.00645C0 1.27337 0.0994965 1.52937 0.276601 1.71811C0.453706 1.90686 0.693912 2.01289 0.944376 2.01289H4.31256L4.94393 5.21185L6.49827 13.2321L4.49716 16.7133C4.39324 16.8628 4.33064 17.0402 4.31646 17.2257C4.30228 17.4111 4.33707 17.597 4.4169 17.7625C4.57742 18.1018 4.90113 18.3156 5.25961 18.3156H6.93969C6.58152 18.8226 6.38806 19.4401 6.38859 20.0747C6.38859 21.6885 7.61922 23 9.13343 23C10.6476 23 11.8783 21.6885 11.8783 20.0747C11.8783 19.4389 11.6803 18.8203 11.3272 18.3156H15.6371C15.2789 18.8226 15.0854 19.4401 15.0859 20.0747C15.0859 21.6885 16.3166 23 17.8308 23C19.345 23 20.5756 21.6885 20.5756 20.0747C20.5756 19.4389 20.3777 18.8203 20.0245 18.3156H23.0556C23.5746 18.3156 24 17.8651 24 17.3092C23.9984 17.0425 23.898 16.7873 23.7206 16.5993C23.5432 16.4113 23.3032 16.3057 23.0529 16.3056ZM6.54108 3.50688L21.9454 3.56105L20.4365 12.5649L8.33619 12.5877L6.54108 3.50688ZM9.13343 20.9757C8.66793 20.9757 8.28804 20.5708 8.28804 20.0747C8.28804 19.5787 8.66793 19.1738 9.13343 19.1738C9.59893 19.1738 9.97882 19.5787 9.97882 20.0747C9.97882 20.3137 9.88975 20.5429 9.73121 20.7118C9.57267 20.8808 9.35764 20.9757 9.13343 20.9757ZM17.8308 20.9757C17.3653 20.9757 16.9854 20.5708 16.9854 20.0747C16.9854 19.5787 17.3653 19.1738 17.8308 19.1738C18.2963 19.1738 18.6762 19.5787 18.6762 20.0747C18.6762 20.3137 18.5871 20.5429 18.4286 20.7118C18.27 20.8808 18.055 20.9757 17.8308 20.9757Z" fill="black"/>
</svg>
