<svg width="26" height="22" viewBox="0 0 26 22" fill="none" xmlns="http://www.w3.org/2000/svg">
<path d="M24.9957 4.40955C24.5982 3.54665 24.0252 2.7647 23.3085 2.10747C22.5914 1.44829 21.7458 0.924438 20.8179 0.564417C19.8556 0.189616 18.8236 -0.00222919 17.7816 1.95423e-05C16.3198 1.95423e-05 14.8936 0.375358 13.6542 1.08433C13.3577 1.25393 13.076 1.44021 12.8092 1.64317C12.5423 1.44021 12.2606 1.25393 11.9641 1.08433C10.7247 0.375358 9.29851 1.95423e-05 7.83672 1.95423e-05C6.78412 1.95423e-05 5.76413 0.189079 4.80048 0.564417C3.86944 0.925854 3.03032 1.44577 2.3098 2.10747C1.59224 2.76396 1.01903 3.5461 0.622668 4.40955C0.210521 5.30758 0 6.26122 0 7.24266C0 8.16849 0.201626 9.13325 0.601913 10.1147C0.936968 10.9349 1.41731 11.7856 2.03108 12.6447C3.00363 14.0043 4.34089 15.4223 6.00134 16.8597C8.75294 19.2424 11.4779 20.8883 11.5935 20.955L12.2962 21.3776C12.6076 21.5639 13.0078 21.5639 13.3192 21.3776L14.0219 20.955C14.1375 20.8855 16.8595 19.2424 19.6141 16.8597C21.2745 15.4223 22.6118 14.0043 23.5843 12.6447C24.1981 11.7856 24.6814 10.9349 25.0135 10.1147C25.4138 9.13325 25.6154 8.16849 25.6154 7.24266C25.6184 6.26122 25.4078 5.30758 24.9957 4.40955ZM12.8092 19.1784C12.8092 19.1784 2.25347 12.8366 2.25347 7.24266C2.25347 4.40955 4.75303 2.11303 7.83672 2.11303C10.0042 2.11303 11.8841 3.24739 12.8092 4.90444C13.7343 3.24739 15.6141 2.11303 17.7816 2.11303C20.8653 2.11303 23.3649 4.40955 23.3649 7.24266C23.3649 12.8366 12.8092 19.1784 12.8092 19.1784Z" fill="black"/>
</svg>
